<svg width="140" height="66" viewBox="0 0 140 66" fill="none" xmlns="http://www.w3.org/2000/svg">
<path d="M29.569 48.4026C24.1379 48.4026 19.9137 52.1258 19.9137 56.9129C19.9137 61.7 24.1379 65.4233 29.569 65.4233C35 65.4233 39.2242 61.7 39.2242 56.9129C39.2242 52.1258 35 48.4026 29.569 48.4026ZM86.8966 0H82.0691V10.372H100.173L86.8966 0ZM0.603394 58.5086H12.6724C12.6724 58.5086 13.2758 42.5517 30.7758 42.5517C43.75 42.5517 45.8621 58.5086 45.8621 58.5086H76.0346V0H0L0.603394 58.5086ZM114.655 48.4026C109.224 48.4026 105 52.1258 105 56.9129C105 61.7 109.224 65.4233 114.655 65.4233C120.086 65.4233 124.31 61.7 124.31 56.9129C124.31 52.1258 119.785 48.4026 114.655 48.4026ZM103.19 13.2974H82.0691V58.5086H100.173C100.173 58.5086 97.7587 45.2112 115.259 45.2112C128.535 45.2112 128.233 58.5086 128.233 58.5086H139.397L140 38.5625L103.19 13.2974ZM100.173 47.8707H88.1036V42.5517H100.173V47.8707ZM98.9656 38.2965L86.8966 31.9138V17.0207H98.9656L130.345 38.2965H98.9656Z" fill="white" fill-opacity="0.4"/>
</svg>
